<mxfile host="app.diagrams.net" modified="2022-07-12T07:23:16.221Z" agent="5.0 (Windows NT 10.0; WOW64) AppleWebKit/537.36 (KHTML, like Gecko) Chrome/96.0.4664.45 Safari/537.36" etag="zEDvEoFWBOL_sFPeUWOr" version="20.0.4" type="github">
  <diagram id="rwhIXsuqGzJhO1hipuLg" name="Page-1">
    <mxGraphModel dx="1185" dy="635" grid="1" gridSize="10" guides="1" tooltips="1" connect="1" arrows="1" fold="1" page="1" pageScale="1" pageWidth="850" pageHeight="1100" math="0" shadow="0">
      <root>
        <mxCell id="0" />
        <mxCell id="1" parent="0" />
        <mxCell id="wyX4PLr5Y0akOSiBZgQQ-28" style="edgeStyle=orthogonalEdgeStyle;rounded=0;orthogonalLoop=1;jettySize=auto;html=1;exitX=0.5;exitY=0;exitDx=0;exitDy=0;entryX=0.5;entryY=1;entryDx=0;entryDy=0;" edge="1" parent="1" target="wyX4PLr5Y0akOSiBZgQQ-27">
          <mxGeometry relative="1" as="geometry">
            <mxPoint x="199" y="290" as="sourcePoint" />
          </mxGeometry>
        </mxCell>
        <mxCell id="wyX4PLr5Y0akOSiBZgQQ-2" value="cbw-release-chooser.bog.ge&lt;br&gt;10.45.92.39" style="rounded=0;whiteSpace=wrap;html=1;" vertex="1" parent="1">
          <mxGeometry x="26" y="290" width="180" height="60" as="geometry" />
        </mxCell>
        <mxCell id="wyX4PLr5Y0akOSiBZgQQ-3" value="" style="shape=umlActor;verticalLabelPosition=bottom;verticalAlign=top;html=1;outlineConnect=0;" vertex="1" parent="1">
          <mxGeometry x="26" y="110" width="30" height="60" as="geometry" />
        </mxCell>
        <mxCell id="wyX4PLr5Y0akOSiBZgQQ-4" value="" style="endArrow=classic;html=1;rounded=0;" edge="1" parent="1" source="wyX4PLr5Y0akOSiBZgQQ-3">
          <mxGeometry width="50" height="50" relative="1" as="geometry">
            <mxPoint x="30" y="220" as="sourcePoint" />
            <mxPoint x="40" y="290" as="targetPoint" />
          </mxGeometry>
        </mxCell>
        <mxCell id="wyX4PLr5Y0akOSiBZgQQ-5" value=":22 port ssh" style="text;html=1;strokeColor=none;fillColor=none;align=center;verticalAlign=middle;whiteSpace=wrap;rounded=0;" vertex="1" parent="1">
          <mxGeometry x="40" y="205" width="60" height="30" as="geometry" />
        </mxCell>
        <mxCell id="wyX4PLr5Y0akOSiBZgQQ-21" style="edgeStyle=orthogonalEdgeStyle;rounded=0;orthogonalLoop=1;jettySize=auto;html=1;exitX=0;exitY=0.5;exitDx=0;exitDy=0;entryX=1;entryY=0.5;entryDx=0;entryDy=0;" edge="1" parent="1" source="wyX4PLr5Y0akOSiBZgQQ-6" target="wyX4PLr5Y0akOSiBZgQQ-2">
          <mxGeometry relative="1" as="geometry">
            <Array as="points">
              <mxPoint x="296" y="250" />
              <mxPoint x="296" y="320" />
            </Array>
          </mxGeometry>
        </mxCell>
        <mxCell id="wyX4PLr5Y0akOSiBZgQQ-6" value="91.209.131.95" style="rounded=0;whiteSpace=wrap;html=1;" vertex="1" parent="1">
          <mxGeometry x="336" y="220" width="120" height="60" as="geometry" />
        </mxCell>
        <mxCell id="wyX4PLr5Y0akOSiBZgQQ-22" style="edgeStyle=orthogonalEdgeStyle;rounded=0;orthogonalLoop=1;jettySize=auto;html=1;exitX=0;exitY=0.5;exitDx=0;exitDy=0;" edge="1" parent="1" source="wyX4PLr5Y0akOSiBZgQQ-7">
          <mxGeometry relative="1" as="geometry">
            <mxPoint x="206" y="320" as="targetPoint" />
            <Array as="points">
              <mxPoint x="296" y="390" />
              <mxPoint x="296" y="320" />
            </Array>
          </mxGeometry>
        </mxCell>
        <mxCell id="wyX4PLr5Y0akOSiBZgQQ-7" value="91.209.131.96" style="rounded=0;whiteSpace=wrap;html=1;" vertex="1" parent="1">
          <mxGeometry x="336" y="360" width="120" height="60" as="geometry" />
        </mxCell>
        <mxCell id="wyX4PLr5Y0akOSiBZgQQ-8" value="release-chooser-bot.bog.ge&lt;br&gt;91.209.131.97" style="rounded=0;whiteSpace=wrap;html=1;" vertex="1" parent="1">
          <mxGeometry x="506" y="290" width="170" height="60" as="geometry" />
        </mxCell>
        <mxCell id="wyX4PLr5Y0akOSiBZgQQ-14" style="edgeStyle=orthogonalEdgeStyle;rounded=0;orthogonalLoop=1;jettySize=auto;html=1;exitX=0;exitY=0.5;exitDx=0;exitDy=0;entryX=1;entryY=0.5;entryDx=0;entryDy=0;" edge="1" parent="1" source="wyX4PLr5Y0akOSiBZgQQ-9" target="wyX4PLr5Y0akOSiBZgQQ-8">
          <mxGeometry relative="1" as="geometry" />
        </mxCell>
        <mxCell id="wyX4PLr5Y0akOSiBZgQQ-9" value="Slack" style="ellipse;whiteSpace=wrap;html=1;aspect=fixed;" vertex="1" parent="1">
          <mxGeometry x="746" y="280" width="80" height="80" as="geometry" />
        </mxCell>
        <mxCell id="wyX4PLr5Y0akOSiBZgQQ-11" value=":443, :80&lt;br&gt;https, http" style="text;html=1;strokeColor=none;fillColor=none;align=center;verticalAlign=middle;whiteSpace=wrap;rounded=0;" vertex="1" parent="1">
          <mxGeometry x="686" y="290" width="60" height="30" as="geometry" />
        </mxCell>
        <mxCell id="wyX4PLr5Y0akOSiBZgQQ-12" value="" style="endArrow=classic;html=1;rounded=0;entryX=1;entryY=0.5;entryDx=0;entryDy=0;exitX=0;exitY=0.5;exitDx=0;exitDy=0;" edge="1" parent="1" source="wyX4PLr5Y0akOSiBZgQQ-8" target="wyX4PLr5Y0akOSiBZgQQ-6">
          <mxGeometry width="50" height="50" relative="1" as="geometry">
            <mxPoint x="356" y="350" as="sourcePoint" />
            <mxPoint x="406" y="300" as="targetPoint" />
          </mxGeometry>
        </mxCell>
        <mxCell id="wyX4PLr5Y0akOSiBZgQQ-13" value="" style="endArrow=classic;html=1;rounded=0;entryX=1;entryY=0.5;entryDx=0;entryDy=0;exitX=0;exitY=0.5;exitDx=0;exitDy=0;" edge="1" parent="1" source="wyX4PLr5Y0akOSiBZgQQ-8" target="wyX4PLr5Y0akOSiBZgQQ-7">
          <mxGeometry width="50" height="50" relative="1" as="geometry">
            <mxPoint x="356" y="350" as="sourcePoint" />
            <mxPoint x="406" y="300" as="targetPoint" />
          </mxGeometry>
        </mxCell>
        <mxCell id="wyX4PLr5Y0akOSiBZgQQ-23" value=":8080" style="text;html=1;strokeColor=none;fillColor=none;align=center;verticalAlign=middle;whiteSpace=wrap;rounded=0;" vertex="1" parent="1">
          <mxGeometry x="226" y="290" width="60" height="30" as="geometry" />
        </mxCell>
        <mxCell id="wyX4PLr5Y0akOSiBZgQQ-24" value="" style="curved=1;endArrow=classic;html=1;rounded=0;exitX=0.5;exitY=1;exitDx=0;exitDy=0;entryX=0.5;entryY=1;entryDx=0;entryDy=0;" edge="1" parent="1" source="wyX4PLr5Y0akOSiBZgQQ-2" target="wyX4PLr5Y0akOSiBZgQQ-9">
          <mxGeometry width="50" height="50" relative="1" as="geometry">
            <mxPoint x="356" y="350" as="sourcePoint" />
            <mxPoint x="406" y="300" as="targetPoint" />
            <Array as="points">
              <mxPoint x="166" y="440" />
              <mxPoint x="416" y="490" />
              <mxPoint x="686" y="450" />
            </Array>
          </mxGeometry>
        </mxCell>
        <mxCell id="wyX4PLr5Y0akOSiBZgQQ-25" value="როცა ჩვენს ბოტს უნდა გაგზავნა მესიჯის, პირდაპირ გადის Slack-ზე და იყენებს Slack-ის API-ს" style="text;html=1;strokeColor=none;fillColor=none;align=center;verticalAlign=middle;whiteSpace=wrap;rounded=0;" vertex="1" parent="1">
          <mxGeometry x="236" y="480" width="360" height="50" as="geometry" />
        </mxCell>
        <mxCell id="wyX4PLr5Y0akOSiBZgQQ-26" value="როცა Slack-ში ვწერთ ბოტს მესიჯს ან შევდივართ ბოტის homepage-ზე Slack-ში, მაშინ Slack იძახებს ჩვენს public server-ს რომელიც შემდეგ ამხელა ფლოუს გადის და ისე აკითხავს ჩვენს სერვერს, სადაც რეალურად კოდი დევს და გაშვებულია" style="text;html=1;strokeColor=none;fillColor=none;align=center;verticalAlign=middle;whiteSpace=wrap;rounded=0;" vertex="1" parent="1">
          <mxGeometry x="476" y="180" width="350" height="80" as="geometry" />
        </mxCell>
        <mxCell id="wyX4PLr5Y0akOSiBZgQQ-27" value="postgresql&lt;br&gt;10.45.46.146&lt;br&gt;release_chooser" style="shape=datastore;whiteSpace=wrap;html=1;" vertex="1" parent="1">
          <mxGeometry x="206" y="60" width="104" height="100" as="geometry" />
        </mxCell>
        <mxCell id="wyX4PLr5Y0akOSiBZgQQ-29" value=":5432" style="text;html=1;strokeColor=none;fillColor=none;align=center;verticalAlign=middle;whiteSpace=wrap;rounded=0;" vertex="1" parent="1">
          <mxGeometry x="193" y="230" width="60" height="30" as="geometry" />
        </mxCell>
        <mxCell id="wyX4PLr5Y0akOSiBZgQQ-30" value="Developer" style="text;html=1;strokeColor=none;fillColor=none;align=center;verticalAlign=middle;whiteSpace=wrap;rounded=0;" vertex="1" parent="1">
          <mxGeometry x="11" y="80" width="60" height="30" as="geometry" />
        </mxCell>
        <mxCell id="wyX4PLr5Y0akOSiBZgQQ-31" value="" style="endArrow=classic;html=1;rounded=0;exitX=1;exitY=0.3333333333333333;exitDx=0;exitDy=0;exitPerimeter=0;" edge="1" parent="1" source="wyX4PLr5Y0akOSiBZgQQ-3" target="wyX4PLr5Y0akOSiBZgQQ-27">
          <mxGeometry width="50" height="50" relative="1" as="geometry">
            <mxPoint x="380" y="340" as="sourcePoint" />
            <mxPoint x="430" y="290" as="targetPoint" />
          </mxGeometry>
        </mxCell>
        <mxCell id="wyX4PLr5Y0akOSiBZgQQ-32" value=":5432" style="text;html=1;strokeColor=none;fillColor=none;align=center;verticalAlign=middle;whiteSpace=wrap;rounded=0;" vertex="1" parent="1">
          <mxGeometry x="100" y="95" width="60" height="30" as="geometry" />
        </mxCell>
        <mxCell id="wyX4PLr5Y0akOSiBZgQQ-33" value="user: release_chooser" style="text;html=1;strokeColor=none;fillColor=none;align=center;verticalAlign=middle;whiteSpace=wrap;rounded=0;" vertex="1" parent="1">
          <mxGeometry x="71" y="125" width="123" height="30" as="geometry" />
        </mxCell>
      </root>
    </mxGraphModel>
  </diagram>
</mxfile>
